[img]http://img193.imageshack.us/img193/5586/posteruc.jpg[/img]
[code]
Super 8 2011 DVDSCR XViD AC3 - IMAGiNE
Ripper ...........: IMAGiNE                                        IMDB Rating.......:7.7/10                             
Video Codec.......: XVID                                         Release Date......:05/08/11
Audio Codec.......:AC3                                           Theatre Date......:17/06/11
Audio Bitrate.....:448                                              Runtime.......:1h 51mn
Subtitles.........:NIL                                                 Language..........:ENGLISH
Resolution......: 720 x 304                                      IMDb URL.......... http://www.imdb.com/title/tt1650062/

DETAILS:

Video
ID                               : 0
Format                           : MPEG-4 Visual
Format profile                   : Advanced Simple@L5
Format settings, BVOP            : 2
Format settings, QPel            : No
Format settings, GMC             : No warppoints
Format settings, Matrix          : Default (MPEG)
Muxing mode                      : Packed bitstream
Codec ID                         : XVID
Codec ID/Hint                    : XviD
Duration                         : 1h 1mn
Bit rate                         : 2 166 Kbps
Width                            : 720 pixels
Height                           : 304 pixels
Display aspect ratio             : 2.35:
Frame rate                       : 23.96 fps
Color space                      : YU
Chroma subsampling               : 42:0
Bit depth                        : 8 bts
Scan type                        : Progessive
Compression mode                 : Lossy
Bits/(Pixel*Frame)               : 0.41
Stream size                      : 1.69 GiB (82%)
Writing library                  : XviD 64

Audio
ID                               : 1
Format                           : C-3
Format/Info                      : Auio Coding 
Mode extension                   : CM (complet main)
Codec ID                         : 200
Duration                         : 1h 51mn
Bit rate mode                    : Constt
Bit rate                         : 448 Kb
Channel(s)                       : 2 channel
Channel positions                : Front: L R
Sampling rate                    : 48.0 KHz
Bit depth                        : 16 bits
Compression mode                 : Lossy
Stream size                      : 359 MiB (17%)
Alignment                        : Aligned on interleaves
Interleave, duration             : 42 ms (1.00 video frame)
Interleave, preload duration     : 512 ms

Plot:
After witnessing a mysterious train crash, a group of friends in the summer of 1979 begin noticing strange happenings going around in their small town, and begin to investigate into the creepy phenomenon.

SOURCES:

VIDEO: .............. Super.8.DvDScreener.Greatness 
AUDIO: .............. Super.8.DvDScreener.Greatness Thanks 

NOTES:

IMAGiNE bringing you another release..........
Super 8 DVDSCR.........

Ok heres our go at Super 8 DVDSCR.........
Source was very nice, thanks to GREATNESS  for that Video had some interlace issues and such so we made a script to crop resize sharpen and deinterlace.......

hen we adjusted the brightness / contrast,filtered the RGB and yada yada Audio we converted from PCM to AC3 and remuxed to our encode 
Enjoy Folks!
[/code]
Screens:
[img]http://img405.imageshack.us/img405/1568/60293974.png[/img]
[img]http://img189.imageshack.us/img189/9070/47473881.png[/img]
[img]http://img143.imageshack.us/img143/6878/47830947.png[/img]
[img]http://img801.imageshack.us/img801/7623/65790531.png[/img]
[img]http://img40.imageshack.us/img40/17/76223627.png[/img]